<?xml version="1.0" encoding="utf-8"?>
<!-- Generator: Adobe Illustrator 24.0.2, SVG Export Plug-In . SVG Version: 6.00 Build 0)  -->
<svg version="1.1" id="圖層_1" xmlns="http://www.w3.org/2000/svg" xmlns:xlink="http://www.w3.org/1999/xlink" x="0px" y="0px"
	 viewBox="0 0 113.2 113.9" style="enable-background:new 0 0 113.2 113.9;" xml:space="preserve">
<style type="text/css">
	.st0{fill:#FEDB41;}
	.st1{fill:#FFCC33;}
	.st2{fill:#FEA832;}
	.st3{fill:#FE9923;}
	.st4{fill:#E9EAEB;}
	.st5{fill:none;stroke:#BCC0C4;stroke-width:2;stroke-miterlimit:10;}
	.st6{fill:#B0E2F1;}
	.st7{fill:#FFFDFB;}
	.st8{fill:#FFFFFF;}
	.st9{fill:#DC5371;}
	.st10{fill:#F2DFA6;}
	.st11{opacity:0.15;enable-background:new    ;}
	.st12{fill:#1773CE;}
</style>
<path class="st0" d="M78.3,40.3c-15,0-27.5,12.2-27.5,27.2S63.2,95,78.3,95s27.2-12.4,27.2-27.5S93.3,40.3,78.3,40.3z"/>
<path class="st1" d="M105.5,67.6c0,15-12.2,27.5-27.2,27.5V40.3C93.3,40.3,105.5,52.5,105.5,67.6z"/>
<path class="st2" d="M78.3,46.7c-11.5,0-21,9.4-21,20.8s9.6,21,21,21s20.8-9.6,20.8-21S89.7,46.7,78.3,46.7z"/>
<path class="st3" d="M99.1,67.6c0,11.5-9.4,21-20.8,21V46.7C89.7,46.7,99.1,56.1,99.1,67.6z"/>
<path class="st0" d="M81.5,66h-1.6v-6.4h1.6c0.9,0,1.6,0.7,1.6,1.6c0,2.1,3.2,2.1,3.2,0c0-2.7-2.1-4.8-4.8-4.8h-1.6v-1.6
	c0-1.1-0.8-1.6-1.6-1.6c-0.8,0-1.6,0.5-1.6,1.6v1.6h-1.8c-2.7,0-4.8,2.1-4.8,4.8v3.2c0,2.7,2.1,4.8,4.8,4.8h1.8v6.6h-1.8
	c-0.9,0-1.6-0.7-1.6-1.6c0-2.1-3.2-2.1-3.2,0c0,2.7,2.1,4.8,4.8,4.8h1.8v1.6c0,1.1,0.8,1.6,1.6,1.6c0.8,0,1.6-0.5,1.6-1.6V79h1.6
	c2.7,0,4.8-2.1,4.8-4.8v-3.4C86.3,68.1,84.1,66,81.5,66z M76.7,66h-1.8c-0.9,0-1.6-0.7-1.6-1.6v-3.2c0-0.9,0.7-1.6,1.6-1.6h1.8V66z
	 M83.1,74.2c0,0.9-0.7,1.6-1.6,1.6h-1.6v-6.6h1.6c0.9,0,1.6,0.7,1.6,1.6V74.2z"/>
<path class="st4" d="M39.5,98.2c-3.2,0-5.7-2.6-5.7-5.7V41.9C15.7,51,8.5,73,17.6,91s31.1,25.3,49.2,16.2c4.4-2.2,8.2-5.3,11.4-9
	L39.5,98.2L39.5,98.2z"/>
<path class="st5" d="M58.8,10.9H46.2c-1.1-2.2-3.3-3.6-5.7-3.7c-0.8,0-1.6,0.2-2.3,0.5c-1.5-4-5.2-6.6-9.4-6.7
	c-5.6,0-10.1,6.3-10.1,9.9H3.8"/>
<path class="st5" d="M13,25.6H0.2"/>
<path class="st5" d="M9.8,31.5h3.7"/>
<path class="st5" d="M62.5,10.9h3.7"/>
<path class="st5" d="M69.8,10.9h3.7"/>
<path class="st6" d="M73.2,17.2h-35c-2.2,0-4,1.9-4,4.3v73.3c0,2.4,1.8,4.3,4,4.3h35c2.2,0,4-1.9,4-4.3V21.5
	C77.2,19.1,75.4,17.2,73.2,17.2z"/>
<path class="st7" d="M73,25.8H38.4c-2.3,0-4.2,2-4.2,4.5V86c0,2.5,1.9,4.5,4.2,4.5H73c2.3,0,4.2-2,4.2-4.5V30.2
	C77.2,27.8,75.3,25.8,73,25.8z"/>
<g>
	<path class="st8" d="M59.7,22.7h-8c-0.6,0-1.2-0.6-1.2-1.2s0.5-1.2,1.2-1.2h8c0.6,0,1.2,0.6,1.2,1.2S60.3,22.7,59.7,22.7z"/>
	<path class="st8" d="M56.9,95.9h-2.5c-0.6,0-1.2-0.6-1.2-1.2c0-0.7,0.5-1.2,1.2-1.2h2.5c0.6,0,1.2,0.6,1.2,1.2
		C58.1,95.4,57.6,95.9,56.9,95.9z"/>
	<path class="st8" d="M68,67.7H43.4c-1,0-1.9-0.9-1.9-2v-4.4c0-1.1,0.8-2,1.9-2H68c1,0,1.9,0.9,1.9,2v4.4C69.8,66.8,69,67.7,68,67.7
		z"/>
</g>
<path class="st9" d="M57.5,80.8h-3.7c-0.8,0-1.4-0.7-1.4-1.5v-3.9c0-0.8,0.6-1.5,1.4-1.5h3.7c0.8,0,1.4,0.7,1.4,1.5v3.9
	C58.9,80.2,58.3,80.8,57.5,80.8z"/>
<path class="st10" d="M68.5,80.8h-3.7c-0.8,0-1.4-0.7-1.4-1.5v-3.9c0-0.8,0.6-1.5,1.4-1.5h3.7c0.8,0,1.4,0.7,1.4,1.5v3.9
	C69.8,80.2,69.2,80.8,68.5,80.8z"/>
<path class="st11" d="M73.2,17.2h-0.4v71c0,2.4-1.8,4.3-4,4.3H34.2v2.3c0,2.4,1.8,4.3,4,4.3h35c2.2,0,4-1.9,4-4.3V21.5
	C77.2,19.1,75.4,17.2,73.2,17.2z"/>
<path class="st12" d="M43.9,45.8v-1.5c0-0.7-0.5-1.2-1.2-1.2s-1.2,0.6-1.2,1.2v1.5c0,0.7,0.5,1.2,1.2,1.2S43.9,46.5,43.9,45.8z
	 M77.2,39.7c-0.6,0-1.2,0.6-1.2,1.2V86c0,1.8-1.4,3.2-3,3.2h-5.6c-0.6,0-1.2,0.6-1.2,1.2s0.5,1.2,1.2,1.2H73c1.1,0,2.2-0.4,3-1v4.1
	c0,1.7-1.3,3.1-2.9,3.1h-35c-1.6,0-2.9-1.4-2.9-3.1v-4.1c0.9,0.6,1.9,1,3,1h23c0.6,0,1.2-0.6,1.2-1.2s-0.5-1.2-1.2-1.2h-23
	c-1.7,0-3-1.4-3-3.2V67.9c0-0.7-0.5-1.2-1.2-1.2s-1.2,0.6-1.2,1.2v26.8c0,3,2.3,5.5,5.2,5.5h35c2.8,0,5.2-2.5,5.2-5.5V40.9
	C78.3,40.2,77.8,39.7,77.2,39.7z M40.4,75.4v3.9c0,1.5,1.1,2.7,2.5,2.7h3.7c1.4,0,2.5-1.2,2.5-2.7v-3.9c0-1.5-1.1-2.7-2.5-2.7h-3.7
	C41.5,72.7,40.4,73.9,40.4,75.4z M42.7,75.4c0-0.1,0.1-0.2,0.2-0.2h3.7c0.1,0,0.2,0.1,0.2,0.2v3.9c0,0.1-0.1,0.2-0.2,0.2h-3.7
	c-0.1,0-0.2-0.1-0.2-0.2L42.7,75.4L42.7,75.4z M55.7,50.4c1.6,0,3.1-1,3.7-2.6c0.3-0.6,0-1.4-0.6-1.6c-0.6-0.3-1.3,0-1.5,0.6
	c-0.3,0.7-0.9,1.1-1.6,1.1c-0.7,0-1.3-0.4-1.6-1.1c-0.3-0.6-0.9-0.9-1.5-0.6c-0.6,0.3-0.8,1-0.6,1.6C52.6,49.4,54.1,50.4,55.7,50.4z
	 M51.3,79.3c0,1.5,1.1,2.7,2.5,2.7h3.7c1.4,0,2.5-1.2,2.5-2.7v-3.9c0-1.5-1.1-2.7-2.5-2.7h-3.7c-1.4,0-2.5,1.2-2.5,2.7V79.3z
	 M53.6,75.4c0-0.1,0.1-0.2,0.2-0.2h3.7c0.1,0,0.2,0.1,0.2,0.2v3.9c0,0.1-0.1,0.2-0.2,0.2h-3.7c-0.1,0-0.2-0.1-0.2-0.2V75.4z
	 M69.8,45.8v-1.5c0-0.7-0.5-1.2-1.2-1.2c-0.6,0-1.2,0.6-1.2,1.2v1.5c0,0.7,0.5,1.2,1.2,1.2C69.3,47,69.8,46.5,69.8,45.8z M73.2,15.9
	h-35c-2.8,0-5.2,2.5-5.2,5.5v40.9c0,0.7,0.5,1.2,1.2,1.2s1.2-0.6,1.2-1.2V30.2c0-1.8,1.4-3.2,3-3.2H73c1.7,0,3,1.4,3,3.2v5
	c0,0.7,0.5,1.2,1.2,1.2c0.6,0,1.2-0.6,1.2-1.2V21.5C78.3,18.4,76,15.9,73.2,15.9z M76,25.5c-0.9-0.6-1.9-1-3-1H38.4
	c-1.1,0-2.2,0.4-3,1v-4.1c0-1.7,1.3-3.1,2.9-3.1h35c1.6,0,2.9,1.4,2.9,3.1L76,25.5L76,25.5z M62.3,75.4v3.9c0,1.5,1.1,2.7,2.5,2.7
	h3.7c1.4,0,2.5-1.2,2.5-2.7v-3.9c0-1.5-1.1-2.7-2.5-2.7h-3.7C63.4,72.7,62.3,73.9,62.3,75.4z M68.7,75.4v3.9c0,0.1-0.1,0.2-0.2,0.2
	h-3.7c-0.1,0-0.2-0.1-0.2-0.2v-3.9c0-0.1,0.1-0.2,0.2-0.2h3.7C68.6,75.2,68.7,75.3,68.7,75.4z"/>
</svg>
