<svg id="圖層_1" data-name="圖層 1" xmlns="http://www.w3.org/2000/svg" viewBox="0 0 117.72 115.29"><defs><style>.cls-1{fill:#fff;}.cls-2{fill:#1773ce;}.cls-3{fill:#b0e2f1;}.cls-4{fill:#fb796b;}.cls-5{fill:#462b17;}.cls-6{fill:#e9eaeb;}.cls-7,.cls-8{fill:none;stroke-miterlimit:10;stroke-width:2px;}.cls-7{stroke:#2a5082;}.cls-8{stroke:#bcc0c4;}.cls-9{fill:#76c9d2;}.cls-10{fill:#5f666f;}.cls-11{fill:#ffd46a;}.cls-12{opacity:0.1;isolation:isolate;}</style></defs><title>icon-home-02</title><rect class="cls-1" x="54.6" y="22.24" width="36.79" height="17.7" rx="2.52" transform="translate(41.91 104.09) rotate(-90)"/><path class="cls-2" d="M80.14,50.44H65.85a2.66,2.66,0,0,1-2.65-2.66V14.4a2.65,2.65,0,0,1,2.65-2.65H80.14a2.65,2.65,0,0,1,2.65,2.65V47.78A2.66,2.66,0,0,1,80.14,50.44ZM65.85,13.64a.76.76,0,0,0-.75.76V47.78a.76.76,0,0,0,.75.76H80.14a.76.76,0,0,0,.76-.76V14.4a.76.76,0,0,0-.76-.76Z"/><rect class="cls-3" x="59.88" y="25.12" width="20.73" height="3.85" rx="1.67" transform="translate(43.2 97.3) rotate(-90)"/><path class="cls-3" d="M71,38.36H69.46a2.09,2.09,0,0,1-2.09-2.08V17.82a2.09,2.09,0,0,1,2.09-2.08H71a2.08,2.08,0,0,1,2.08,2.08V36.28A2.08,2.08,0,0,1,71,38.36ZM69.46,17.63a.18.18,0,0,0-.19.19V36.28a.19.19,0,0,0,.19.19H71a.2.2,0,0,0,.19-.19V17.82a.19.19,0,0,0-.19-.19Z"/><rect class="cls-4" x="73.48" y="34.25" width="5.92" height="5.92" rx="1.64" transform="translate(39.23 113.65) rotate(-90)"/><path class="cls-5" d="M78.29,41.12h-3.7a2.06,2.06,0,0,1-2.06-2.06v-3.7a2.06,2.06,0,0,1,2.06-2.06h3.7a2.06,2.06,0,0,1,2.06,2.06v3.7A2.06,2.06,0,0,1,78.29,41.12Zm-3.7-5.92a.16.16,0,0,0-.16.16v3.7a.16.16,0,0,0,.16.16h3.7a.17.17,0,0,0,.17-.16v-3.7a.17.17,0,0,0-.17-.16Z"/><rect class="cls-5" x="74.01" y="19.68" width="1.9" height="11.86"/><rect class="cls-5" x="76.98" y="19.68" width="1.9" height="11.86"/><rect class="cls-1" x="54.93" y="22.78" width="36.79" height="17.7" rx="2.52" transform="translate(-5.57 44) rotate(-32.25)"/><path class="cls-2" d="M61.48,48.74a2.8,2.8,0,0,1-.77-.8L53.13,35.83A2.66,2.66,0,0,1,54,32.17l28.3-17.7a2.67,2.67,0,0,1,3.66.85l7.57,12.11a2.66,2.66,0,0,1-.84,3.66L64.37,48.78a2.64,2.64,0,0,1-2,.34A2.76,2.76,0,0,1,61.48,48.74ZM84.11,16.09a.76.76,0,0,0-.82,0L55,33.78a.76.76,0,0,0-.24,1l7.58,12.11a.68.68,0,0,0,.47.34.72.72,0,0,0,.57-.1l28.3-17.69a.75.75,0,0,0,.25-1L84.33,16.32A.8.8,0,0,0,84.11,16.09Z"/><rect class="cls-3" x="65.22" y="23.84" width="20.73" height="3.85" rx="1.67" transform="translate(-2.09 44.31) rotate(-32.25)"/><path class="cls-3" d="M67.06,33.1a2,2,0,0,1-.62-.63l-.84-1.34a2.09,2.09,0,0,1,.65-2.87l15.61-9.85a2.09,2.09,0,0,1,2.87.65l.85,1.34a2.09,2.09,0,0,1-.65,2.87L69.31,33.12a2,2,0,0,1-1.57.27A1.8,1.8,0,0,1,67.06,33.1ZM83.08,20,83,20a.18.18,0,0,0-.14,0L67.26,29.87a.18.18,0,0,0-.06.25l.85,1.34a.13.13,0,0,0,.11.08.18.18,0,0,0,.14,0l15.62-9.85a.19.19,0,0,0,.06-.26l-.85-1.34Z"/><rect class="cls-4" x="70.41" y="32.71" width="5.92" height="5.92" rx="1.64" transform="translate(-7.72 44.65) rotate(-32.25)"/><path class="cls-5" d="M71.66,39.94a2,2,0,0,1-.61-.62l-2-3.13a2,2,0,0,1-.27-1.55,2.06,2.06,0,0,1,.91-1.29l3.13-2a2.07,2.07,0,0,1,1.55-.27,2,2,0,0,1,1.29.91l2,3.13a2,2,0,0,1,.27,1.56A2,2,0,0,1,77,38l-3.13,2a2,2,0,0,1-1.55.26A1.8,1.8,0,0,1,71.66,39.94ZM74,33,74,33a.19.19,0,0,0-.12,0l-3.13,2a.15.15,0,0,0-.07.1.14.14,0,0,0,0,.12l2,3.13a.13.13,0,0,0,.1.07.14.14,0,0,0,.12,0l3.13-2a.15.15,0,0,0,.07-.1.16.16,0,0,0,0-.13l-2-3.13Z"/><line class="cls-2" x1="77.37" y1="31.4" x2="87.4" y2="25.07"/><rect class="cls-2" x="76.46" y="27.29" width="11.86" height="1.9" transform="translate(-2.36 48.31) rotate(-32.25)"/><line class="cls-2" x1="78.95" y1="33.9" x2="88.98" y2="27.57"/><rect class="cls-2" x="78.04" y="29.79" width="11.86" height="1.9" transform="translate(-3.45 49.54) rotate(-32.25)"/><circle class="cls-6" cx="56.68" cy="67.78" r="41.84"/><path class="cls-7" d="M30,104.38v10.46"/><path class="cls-7" d="M11.07,114.1h91.65"/><path class="cls-7" d="M104.17,114.1h7.34"/><path class="cls-7" d="M114.06,114.1h3.66"/><path class="cls-7" d="M4.56,114.1H8.22"/><path class="cls-8" d="M102,26.13v8.12"/><path class="cls-8" d="M106.07,30.19H97.94"/><circle class="cls-8" cx="110.13" cy="11.24" r="4.06"/><path class="cls-8" d="M58.66,10.93H46a6.84,6.84,0,0,0-5.72-3.72A6.16,6.16,0,0,0,38,7.69,10.19,10.19,0,0,0,28.55,1C23,1,18.48,7.27,18.47,10.93H3.67"/><path class="cls-8" d="M12.83,25.59H0"/><path class="cls-8" d="M16.5,25.59h3.66"/><path class="cls-8" d="M62.33,10.93H66"/><path class="cls-8" d="M69.66,10.93h3.66"/><path class="cls-9" d="M99.32,88.31H11.73A1.7,1.7,0,0,0,10,90v5.85A4.15,4.15,0,0,0,14.19,100H96.86A4.15,4.15,0,0,0,101,95.86V90A1.7,1.7,0,0,0,99.32,88.31Z"/><path class="cls-10" d="M99.32,88.31H11.73A1.7,1.7,0,0,0,10,90v5.85A4.15,4.15,0,0,0,14.19,100H96.86A4.15,4.15,0,0,0,101,95.86V90A1.7,1.7,0,0,0,99.32,88.31Z"/><path class="cls-11" d="M99.32,88.31h-6.2A1.7,1.7,0,0,1,94.81,90v5.85h0a.83.83,0,0,1-.84.82H14.19A4.15,4.15,0,0,1,10,92.54v3.32A4.15,4.15,0,0,0,14.19,100H96.86A4.15,4.15,0,0,0,101,95.86V90A1.7,1.7,0,0,0,99.32,88.31Z"/><circle class="cls-9" cx="55.52" cy="40.13" r="1.16"/><path class="cls-1" d="M20.74,82V43.65a.77.77,0,0,1,.77-.76h68a.76.76,0,0,1,.76.76V82a.76.76,0,0,1-.76.76h-68A.77.77,0,0,1,20.74,82Z"/><path class="cls-3" d="M80.82,82.8H30.23V51.61a3.14,3.14,0,0,1,3.14-3.14h44.3a3.14,3.14,0,0,1,3.15,3.14V82.8Z"/><path class="cls-9" d="M67.76,88.31H43.29v2a3.07,3.07,0,0,0,3.07,3.07H64.69a3.07,3.07,0,0,0,3.07-3.07Z"/><path class="cls-5" d="M67.76,77.21H43.29a1.37,1.37,0,0,1,0-2.74H67.76a1.37,1.37,0,0,1,0,2.74Z"/><path class="cls-12" d="M93.25,37.38H87.74a2.56,2.56,0,0,1,2.56,2.56V80.82H15.24v7.49H95.81V39.94A2.56,2.56,0,0,0,93.25,37.38Z"/><path class="cls-2" d="M98.16,86H96V51.4a1.38,1.38,0,1,0-2.75,0V86H83.92a1.38,1.38,0,0,0,0,2.75H98.16a.33.33,0,0,1,.32.32v5.85a2.78,2.78,0,0,1-2.78,2.78H13a2.78,2.78,0,0,1-2.78-2.78V89.09a.33.33,0,0,1,.32-.32H40.76v.62a4.44,4.44,0,0,0,4.44,4.44H63.53A4.44,4.44,0,0,0,68,89.39v-.62H77A1.38,1.38,0,0,0,77,86H15.45V39a1.19,1.19,0,0,1,1.19-1.19H92.09A1.19,1.19,0,0,1,93.28,39v5.78a1.38,1.38,0,0,0,2.75,0V39a4,4,0,0,0-3.94-3.94H16.64A4,4,0,0,0,12.7,39V86H10.57A3.08,3.08,0,0,0,7.5,89.09v5.85A5.54,5.54,0,0,0,13,100.47H95.7a5.54,5.54,0,0,0,5.53-5.53V89.09A3.08,3.08,0,0,0,98.16,86ZM43.51,88.77H65.22v.62a1.69,1.69,0,0,1-1.69,1.69H45.2a1.69,1.69,0,0,1-1.69-1.69v-.62ZM19.59,74.91a1.37,1.37,0,0,0-1.38,1.37v4.84a2.14,2.14,0,0,0,2.14,2.14h68a2.14,2.14,0,0,0,2.14-2.14V42.74a2.14,2.14,0,0,0-2.14-2.14h-68a2.14,2.14,0,0,0-2.14,2.14V69.63a1.38,1.38,0,0,0,2.75,0V43.34H87.77V80.52H81V50.69a4.52,4.52,0,0,0-4.52-4.51H32.22a4.52,4.52,0,0,0-4.52,4.51V80.52H21V76.28A1.37,1.37,0,0,0,19.59,74.91ZM30.45,50.69a1.77,1.77,0,0,1,1.77-1.77H76.51a1.77,1.77,0,0,1,1.77,1.77V80.52H30.45Zm6.76,4.88A1.38,1.38,0,0,0,35.83,57v1.89a1.38,1.38,0,0,0,2.75,0V57A1.37,1.37,0,0,0,37.21,55.57Zm34.31,0A1.37,1.37,0,0,0,70.15,57v1.89a1.38,1.38,0,0,0,2.75,0V57A1.38,1.38,0,0,0,71.52,55.57Zm-13.1,3.91a1.37,1.37,0,0,0-1.81.7,2.45,2.45,0,0,1-4.49,0,1.37,1.37,0,0,0-2.52,1.1,5.21,5.21,0,0,0,9.53,0A1.36,1.36,0,0,0,58.42,59.48Z"/><circle class="cls-8" cx="12.83" cy="107.28" r="4.06"/></svg>